<svg xmlns="http://www.w3.org/2000/svg"  viewBox="0 0 50 50" width="50px" height="50px"><path d="M 5 5 C 3.355469 5 2 6.355469 2 8 L 2 11 L 48 11 L 48 8 C 48 6.355469 46.644531 5 45 5 Z M 7 8 C 7.550781 8 8 8.449219 8 9 C 8 9.550781 7.550781 10 7 10 C 6.449219 10 6 9.550781 6 9 C 6 8.449219 6.449219 8 7 8 Z M 10 8 C 10.550781 8 11 8.449219 11 9 C 11 9.550781 10.550781 10 10 10 C 9.449219 10 9 9.550781 9 9 C 9 8.449219 9.449219 8 10 8 Z M 2 13 L 2 27 L 48 27 L 48 13 Z M 2 29 L 2 42 C 2 43.644531 3.355469 45 5 45 L 24 45 L 24 29 Z M 26 29 L 26 45 L 45 45 C 46.644531 45 48 43.644531 48 42 L 48 29 Z M 6 31 L 21 31 L 21 33 L 6 33 Z M 6 35 L 21 35 L 21 37 L 6 37 Z M 6 39 L 15 39 L 15 41 L 6 41 Z"/></svg>